# xmcd
#
# Track frame offsets:
#	150
#	17534
#	33539
#	54563
#	73095
#	97124
#	119519
#	135270
#	155677
#	172500
#	186008
#	206963
#	231544
#
# Disc length: 3371 seconds
#
# Revision: 0
# Processed by: cddbd v1.5.2PL0 Copyright (c) Steve Scherf et al.
# Submitted via: dBpowerAMP V4.0
#
DISCID=b50d290d
DTITLE=Waz e James band - Water melon
DYEAR=2009
DGENRE=Country
TTITLE0=The plainsman
TTITLE1=Back Again
TTITLE2=Everything is free
TTITLE3=Long Time Coming
TTITLE4=Hair of the dog
TTITLE5=Time after time
TTITLE6=This Ones for the bride
TTITLE7=Same old thing
TTITLE8=Hold on to my love
TTITLE9=Nymphomaniac
TTITLE10=God's Not Dead
TTITLE11=When Rita Leaves
TTITLE12=Dave's Got The Blues
EXTD=
EXTT0=
EXTT1=
EXTT2=
EXTT3=
EXTT4=
EXTT5=
EXTT6=
EXTT7=
EXTT8=
EXTT9=
EXTT10=
EXTT11=
EXTT12=
PLAYORDER=
